<svg width="206" height="57" viewBox="0 0 206 57" fill="none" xmlns="http://www.w3.org/2000/svg">
<path fill-rule="evenodd" clip-rule="evenodd" d="M169.85 37.4986C173.898 37.4986 177.101 32.8503 177.101 27.1306V13.3066H180.352V27.1306C180.352 34.7338 175.67 40.8682 169.915 40.8682C164.16 40.8682 159.479 34.7338 159.479 27.1306V13.3066H162.73V27.1306C162.6 32.9367 165.802 37.585 169.834 37.585L169.85 37.4986ZM91.5417 41.0749H88.2904V38.6039C86.1937 40.1639 83.6969 41.0023 81.1375 41.0058C75.1229 41.0486 69.8654 36.7018 68.4241 30.4947C66.9828 24.2876 69.7339 17.8397 75.0765 14.9029C80.419 11.9661 86.9592 13.3065 90.8915 18.1444L88.5018 20.408C85.5121 16.855 80.6284 15.9268 76.6656 18.1582C72.7028 20.3897 70.682 25.2058 71.768 29.8308C72.8539 34.4557 76.7668 37.6977 81.2513 37.688C83.9852 37.694 86.5855 36.432 88.3717 34.232H79.5932V30.776H91.5743L91.5417 41.0749ZM36.5453 13.5293H33.2939V41.0391H46.2992V37.5831H36.5453V13.5293ZM56.4288 34.2653C61.8157 34.2653 66.1827 29.6234 66.1827 23.8973C66.1827 18.1712 61.8157 13.5293 56.4288 13.5293C53.8419 13.5293 51.3609 14.6216 49.5317 16.566C47.7025 18.5104 46.6748 21.1475 46.6748 23.8973C46.6748 29.6234 51.0418 34.2653 56.4288 34.2653ZM56.4282 30.8122C60.0195 30.8122 62.9309 27.7176 62.9309 23.9002C62.9309 20.0828 60.0195 16.9882 56.4282 16.9882C52.8369 16.9882 49.9256 20.0828 49.9256 23.9002C49.9435 27.7041 52.8496 30.7777 56.4282 30.7777V30.8122ZM62.9309 41.0773V37.6213H49.9256V41.0773H62.9309ZM113.261 23.9665C113.261 18.2404 108.894 13.5985 103.507 13.5985L103.54 13.5294C100.936 13.5201 98.4365 14.6178 96.5984 16.5782C94.7602 18.5385 93.7358 21.1988 93.7531 23.9665C93.7531 29.6926 98.1201 34.3345 103.507 34.3345C108.894 34.3345 113.261 29.6926 113.261 23.9665ZM103.506 30.8787C107.097 30.8787 110.008 27.7841 110.008 23.9667C110.008 20.1493 107.097 17.0547 103.506 17.0547C99.9143 17.0547 97.0029 20.1493 97.0029 23.9667C97.0564 27.757 99.9719 30.7944 103.538 30.775L103.506 30.8787ZM110.008 41.1455V37.6895H97.0029V41.1455H110.008ZM116.724 13.5293H119.975V41.0045H116.724V13.5293ZM127.728 13.5316H124.477V41.0586H127.728V34.1466H128.232C131.947 34.575 135.566 32.7095 137.55 29.3431C139.534 25.9767 139.534 21.7015 137.55 18.3351C135.566 14.9687 131.947 13.1031 128.232 13.5316C128.065 13.5127 127.896 13.5127 127.728 13.5316ZM127.728 16.9858V17.0664L127.712 17.0722L127.728 16.9858ZM127.728 17.0664C127.892 17.0089 128.061 16.9702 128.232 16.9513C130.739 16.5964 133.213 17.8192 134.573 20.0861C135.933 22.353 135.933 25.2526 134.573 27.5195C133.213 29.7864 130.739 31.0092 128.232 30.6543H127.728V17.0664ZM151.1 15.5621L151.154 15.5169L151.138 15.6033L151.1 15.5621ZM146.57 13.6161C148.27 13.5627 149.913 14.2691 151.1 15.5621L148.748 17.5387C147.9 16.5974 146.617 16.2634 145.456 16.682C144.295 17.1007 143.468 18.1962 143.334 19.4913V19.7678C143.334 21.2884 144.326 22.3079 146.261 22.4462C153.706 22.93 157.12 26.6452 157.12 31.5527V31.8638C156.727 35.8303 154.195 39.1893 150.638 40.4606C147.082 41.7319 143.155 40.682 140.587 37.7735L143.074 35.7345C144.246 37.0693 145.91 37.7896 147.626 37.7044C150.879 37.8867 153.69 35.311 153.999 31.8638V31.6219C153.999 27.0081 149.74 26.1614 146.049 25.7812C142.635 25.4356 140.181 23.1719 140.181 19.906V19.7678C140.431 16.2367 143.239 13.5325 146.57 13.6161ZM202.052 40.9527H205.304L205.271 13.5293L194.542 28.5456L183.812 13.5293V41.0045H187.064V23.8455L194.558 34.2135L202.052 23.8455V40.9527Z" fill="white"/>
<path fill-rule="evenodd" clip-rule="evenodd" d="M17.6872 9.40032C17.6872 4.20867 13.7278 0 8.84359 0C3.95941 0 0 4.20867 0 9.40032V37.8259L7.28296 43.3728V56.8858H10.4042V43.3728L17.6872 37.8259V9.40032ZM14.566 25.2995L10.4043 29.7232V25.576L14.566 21.1523V25.2995ZM7.34821 25.576L3.18652 21.1523V25.2995L7.34821 29.7232V25.576ZM14.5657 16.4515L8.84342 22.534L3.12109 16.3132V12.166L8.84342 18.2486L14.5657 12.166V16.4515ZM14.3708 7.82703C13.6912 5.17415 11.4301 3.32912 8.84351 3.31695V3.24783C6.23837 3.26842 3.97118 5.14674 3.31627 7.82703L8.84351 13.685L14.3708 7.82703ZM3.12109 36.1485V29.9277L7.28278 34.3514V39.2935L3.12109 36.1485ZM10.4041 34.3515V39.3108L14.5658 36.1313V29.9278L10.4041 34.3515Z" fill="#ED0742"/>
</svg>
