<svg width="190" height="52" viewBox="0 0 190 52" fill="none" xmlns="http://www.w3.org/2000/svg">
<path fill-rule="evenodd" clip-rule="evenodd" d="M157.188 34.067C160.935 34.067 163.898 29.8442 163.898 24.6482V12.0898H166.907V24.6482C166.907 31.5553 162.574 37.1281 157.249 37.1281C151.923 37.1281 147.59 31.5553 147.59 24.6482V12.0898H150.599V24.6482C150.478 29.9227 153.442 34.1455 157.173 34.1455L157.188 34.067ZM84.7179 37.3146H81.7089V35.0698C79.7684 36.4871 77.4578 37.2487 75.0892 37.2518C69.523 37.2907 64.6574 33.3419 63.3235 27.7031C61.9897 22.0642 64.5356 16.2067 69.48 13.5387C74.4243 10.8708 80.4769 12.0885 84.1161 16.4834L81.9045 18.5399C79.1376 15.3122 74.6181 14.4689 70.9506 16.496C67.2832 18.5232 65.4131 22.8984 66.4181 27.0999C67.4231 31.3015 71.0443 34.2466 75.1945 34.2378C77.7246 34.2433 80.131 33.0967 81.7841 31.0982H73.66V27.9586H84.7479L84.7179 37.3146ZM33.8215 12.293H30.8125V37.2841H42.8483V34.1445H33.8215V12.293ZM52.2231 31.1305C57.2085 31.1305 61.25 26.9136 61.25 21.7118C61.25 16.5099 57.2085 12.293 52.2231 12.293C49.8291 12.293 47.5331 13.2853 45.8402 15.0517C44.1473 16.818 43.1963 19.2137 43.1963 21.7118C43.1963 26.9136 47.2378 31.1305 52.2231 31.1305ZM52.223 27.9939C55.5466 27.9939 58.2409 25.1826 58.2409 21.7147C58.2409 18.2468 55.5466 15.4355 52.223 15.4355C48.8994 15.4355 46.2051 18.2468 46.2051 21.7147C46.2216 25.1704 48.9111 27.9626 52.223 27.9625V27.9939ZM58.2409 37.3173V34.1777H46.2051V37.3173H58.2409ZM104.818 21.7746C104.818 16.5727 100.776 12.3558 95.7907 12.3558L95.8208 12.293C93.4111 12.2846 91.0981 13.2818 89.397 15.0627C87.6959 16.8436 86.7478 19.2603 86.7639 21.7746C86.7639 26.9764 90.8053 31.1934 95.7907 31.1934C100.776 31.1934 104.818 26.9764 104.818 21.7746ZM95.7904 28.0545C99.114 28.0545 101.808 25.2432 101.808 21.7753C101.808 18.3074 99.114 15.4961 95.7904 15.4961C92.4668 15.4961 89.7725 18.3074 89.7725 21.7753C89.8219 25.2186 92.5201 27.9779 95.8205 27.9603L95.7904 28.0545ZM101.809 34.2402H89.7734V37.3798H101.809V34.2402ZM108.022 12.293H111.031V37.2527H108.022V12.293ZM118.206 12.2934H115.197V37.3003H118.206V31.0211H118.673C122.111 31.4103 125.46 29.7155 127.296 26.6573C129.132 23.5992 129.132 19.7153 127.296 16.6571C125.46 13.599 122.111 11.9042 118.673 12.2934C118.518 12.2762 118.361 12.2762 118.206 12.2934ZM118.206 15.4322V15.5054L118.191 15.5107L118.206 15.4322ZM118.206 15.5054C118.358 15.4531 118.514 15.418 118.673 15.4008C120.993 15.0784 123.282 16.1893 124.541 18.2486C125.8 20.308 125.8 22.9421 124.541 25.0015C123.282 27.0608 120.993 28.1717 118.673 27.8493H118.206V15.5054ZM139.837 14.1378L139.887 14.0967L139.872 14.1752L139.837 14.1378ZM135.644 12.37C137.218 12.3215 138.738 12.9632 139.837 14.1378L137.66 15.9334C136.876 15.0783 135.688 14.7749 134.614 15.1552C133.539 15.5355 132.774 16.5308 132.65 17.7073V17.9584C132.65 19.3399 133.568 20.266 135.358 20.3916C142.249 20.8312 145.408 24.2062 145.408 28.6645V28.947C145.045 32.5504 142.701 35.6019 139.41 36.7568C136.118 37.9116 132.484 36.9579 130.108 34.3157L132.409 32.4634C133.494 33.676 135.034 34.3303 136.622 34.2529C139.633 34.4185 142.234 32.0786 142.52 28.947V28.7273C142.52 24.5359 138.578 23.7667 135.163 23.4213C132.003 23.1074 129.731 21.0509 129.731 18.084V17.9584C129.963 14.7506 132.562 12.2941 135.644 12.37ZM186.992 37.2056H190.001L189.97 12.293L180.041 25.9345L170.111 12.293V37.2527H173.12V21.6647L180.056 31.0834L186.992 21.6647V37.2056Z" fill="#27213C"/>
<path fill-rule="evenodd" clip-rule="evenodd" d="M16.3687 8.53969C16.3687 3.82335 12.7044 0 8.18435 0C3.66426 0 0 3.82335 0 8.53969V34.3629L6.74005 39.4019V51.6777H9.62865V39.4019L16.3687 34.3629V8.53969ZM13.4794 22.9843L9.62793 27.003V23.2355L13.4794 19.2168V22.9843ZM6.80068 23.2355L2.94922 19.2168V22.9843L6.80068 27.003V23.2355ZM13.4802 14.9439L8.18443 20.4696L2.88867 14.8183V11.0508L8.18443 16.5765L13.4802 11.0508V14.9439ZM13.2998 7.11309C12.6709 4.70309 10.5783 3.02697 8.18456 3.01592V2.95312C5.77361 2.97183 3.67543 4.67818 3.06934 7.11309L8.18456 12.4347L13.2998 7.11309ZM2.88867 32.8368V27.1855L6.74013 31.2042V35.6938L2.88867 32.8368ZM9.62793 31.2042V35.7095L13.4794 32.8211V27.1855L9.62793 31.2042Z" fill="#ED1465"/>
</svg>
